{"asset":{"version":"2.0","generator":"Verge3D"},"scenes":[{"name":"AuxScene","nodes":[0]}],"scene":0,"nodes":[{"rotation":[0.7071067690849304,0,0,0.7071067690849304],"translation":[12.58154010772705,-13.358661651611328,0],"scale":[0.009999999776482582,0.009999999776482582,0.009999999776482582],"name":"3Dmodelexport","extras":{"name":"3Dmodelexport"},"mesh":0}],"bufferViews":[{"buffer":0,"byteOffset":0,"byteLength":272424,"target":34962,"byteStride":12},{"buffer":0,"byteOffset":272424,"byteLength":272424,"target":34962,"byteStride":12},{"buffer":0,"byteOffset":544848,"byteLength":363232,"target":34962,"byteStride":16},{"buffer":0,"byteOffset":908080,"byteLength":181616,"target":34962,"byteStride":8},{"buffer":0,"byteOffset":1089696,"byteLength":266144,"target":34963}],"buffers":[{"byteLength":1355840,"uri":"data:application/octet-stream;base64,"}],"accessors":[{"bufferView":0,"componentType":5126,"count":22702,"max":[0.9999858736991882,0.9999908804893494,0.91879802942276],"min":[-0.9999949932098389,-0.999911904335022,-0.9994877576828003],"type":"VEC3"},{"bufferView":1,"componentType":5126,"count":22702,"max":[314.2389831542969,162.19215393066406,-1015.191650390625],"min":[-311.4886779785156,-159.25584411621094,-1641.37939453125],"type":"VEC3"},{"bufferView":2,"componentType":5126,"count":22702,"max":[0.999998927116394,0.9999176263809204,0.777384877204895,-1],"min":[-0.999998927116394,-0.9999268054962158,-0.961783230304718,-1],"type":"VEC4"},{"bufferView":3,"componentType":5126,"count":22702,"max":[0.9655212759971619,0.9417191743850708],"min":[0.03755659610033035,0.01300358772277832],"type":"VEC2"},{"bufferView":4,"componentType":5123,"count":133071,"max":[22701],"min":[0],"type":"SCALAR"}],"materials":[{"pbrMetallicRoughness":{"baseColorFactor":[0.800000011920929,0.800000011920929,0.800000011920929,1],"metallicFactor":0,"roughnessFactor":1,"baseColorTexture":{"index":0}},"normalTexture":{"index":1},"doubleSided":true,"name":"susannas_help_PBR.001"}],"textures":[{"sampler":0,"source":0,"name":"yourdesignhere_001.png.001"},{"sampler":1,"source":1,"name":"normaldetailscropped.jpg.001"}],"samplers":[{"magFilter":9729,"minFilter":9987,"wrapS":10497,"wrapT":10497},{"magFilter":9729,"minFilter":9987,"wrapS":10497,"wrapT":10497}],"images":[{"mimeType":"image/png","uri":"data:image/png;base64,"},{"mimeType":"image/jpeg","uri":"data:image/jpeg;base64,"}],"meshes":[{"primitives":[{"mode":4,"attributes":{"NORMAL":0,"POSITION":1,"TANGENT":2,"TEXCOORD_0":3},"indices":4,"material":0}]}]}