{"asset":{"version":"2.0","generator":"Verge3D"},"scenes":[{"name":"AuxScene","nodes":[0]}],"scene":0,"nodes":[{"rotation":[0.7071067690849304,0,0,0.7071067690849304],"translation":[16.248323440551758,-0.422433465719223,-0.24859526753425598],"scale":[0.009999999776482582,0.009999999776482582,0.009999999776482582],"name":"3Dmodelexport","extras":{"name":"3Dmodelexport"},"mesh":0}],"bufferViews":[{"buffer":0,"byteOffset":0,"byteLength":516396,"target":34962,"byteStride":12},{"buffer":0,"byteOffset":516396,"byteLength":516396,"target":34962,"byteStride":12},{"buffer":0,"byteOffset":1032792,"byteLength":688528,"target":34962,"byteStride":16},{"buffer":0,"byteOffset":1721320,"byteLength":344264,"target":34962,"byteStride":8},{"buffer":0,"byteOffset":2065584,"byteLength":474236,"target":34963}],"buffers":[{"byteLength":2539820,"uri":"data:application/octet-stream;base64,"}],"accessors":[{"bufferView":0,"componentType":5126,"count":43033,"max":[0.9999635219573975,0.9999964833259583,0.9999927878379822],"min":[-0.9999772310256958,-0.9999809861183167,-0.9997692704200745],"type":"VEC3"},{"bufferView":1,"componentType":5126,"count":43033,"max":[329.320556640625,146.4827117919922,365.9154052734375],"min":[-320.18780517578125,-234.5194091796875,-365.5489501953125],"type":"VEC3"},{"bufferView":2,"componentType":5126,"count":43033,"max":[1,0.9999979138374329,0.9998846650123596,1],"min":[-0.9999963641166687,-0.9998747706413269,-0.9998552799224854,-1],"type":"VEC4"},{"bufferView":3,"componentType":5126,"count":43033,"max":[0.9782553315162659,0.9817386269569397],"min":[0.02616112306714058,0.033809542655944824],"type":"VEC2"},{"bufferView":4,"componentType":5123,"count":237117,"max":[43032],"min":[0],"type":"SCALAR"}],"materials":[{"pbrMetallicRoughness":{"baseColorFactor":[0.800000011920929,0.800000011920929,0.800000011920929,1],"metallicFactor":0,"roughnessFactor":1,"baseColorTexture":{"index":0}},"doubleSided":true,"name":"susannas_help_PBR"}],"textures":[{"sampler":0,"source":0,"name":"yourdesignhere_001.png.001"}],"samplers":[{"magFilter":9729,"minFilter":9987,"wrapS":10497,"wrapT":10497}],"images":[{"mimeType":"image/png","uri":"data:image/png;base64,"}],"meshes":[{"primitives":[{"mode":4,"attributes":{"NORMAL":0,"POSITION":1,"TANGENT":2,"TEXCOORD_0":3},"indices":4,"material":0}]}]}