{"asset":{"version":"2.0","generator":"Verge3D"},"scenes":[{"name":"AuxScene","nodes":[0]}],"scene":0,"nodes":[{"rotation":[0.7071067690849304,0,0,0.7071067690849304],"translation":[10.547403335571289,0.4300832748413086,-0.1493474841117859],"scale":[0.009999999776482582,0.009999999776482582,0.009999999776482582],"name":"3Dmodelexport","extras":{"name":"3Dmodelexport"},"mesh":0}],"bufferViews":[{"buffer":0,"byteOffset":0,"byteLength":335700,"target":34962,"byteStride":12},{"buffer":0,"byteOffset":335700,"byteLength":335700,"target":34962,"byteStride":12},{"buffer":0,"byteOffset":671400,"byteLength":447600,"target":34962,"byteStride":16},{"buffer":0,"byteOffset":1119000,"byteLength":223800,"target":34962,"byteStride":8},{"buffer":0,"byteOffset":1342800,"byteLength":315420,"target":34963}],"buffers":[{"byteLength":1658220,"uri":"data:application/octet-stream;base64,"}],"accessors":[{"bufferView":0,"componentType":5126,"count":27975,"max":[0.9999741911888123,0.9999673962593079,0.9993928670883179],"min":[-0.9999752640724182,-0.9999647736549377,-0.9992704391479492],"type":"VEC3"},{"bufferView":1,"componentType":5126,"count":27975,"max":[327.7018737792969,197.42051696777344,378.80377197265625],"min":[-326.2928771972656,-178.9803009033203,-380.017822265625],"type":"VEC3"},{"bufferView":2,"componentType":5126,"count":27975,"max":[0.9999802708625793,0.9999978542327881,0.9988791346549988,1],"min":[-0.999985933303833,-0.9999811053276062,-0.9995524287223816,-1],"type":"VEC4"},{"bufferView":3,"componentType":5126,"count":27975,"max":[0.8642993569374084,0.9828275442123413],"min":[0.14312495291233063,0.0859682559967041],"type":"VEC2"},{"bufferView":4,"componentType":5123,"count":157710,"max":[27974],"min":[0],"type":"SCALAR"}],"materials":[{"pbrMetallicRoughness":{"baseColorFactor":[0.800000011920929,0.800000011920929,0.800000011920929,1],"metallicFactor":0,"roughnessFactor":1,"baseColorTexture":{"index":0}},"doubleSided":true,"name":"susannas_help_PBR"}],"textures":[{"sampler":0,"source":0,"name":"yourdesignhere_001.png.001"}],"samplers":[{"magFilter":9729,"minFilter":9987,"wrapS":10497,"wrapT":10497}],"images":[{"mimeType":"image/png","uri":"data:image/png;base64,"}],"meshes":[{"primitives":[{"mode":4,"attributes":{"NORMAL":0,"POSITION":1,"TANGENT":2,"TEXCOORD_0":3},"indices":4,"material":0}]}]}