{"asset":{"version":"2.0","generator":"Verge3D"},"scenes":[{"name":"AuxScene","nodes":[0]}],"scene":0,"nodes":[{"rotation":[0.7071067690849304,0,0,0.7071067690849304],"translation":[-10.400237083435059,-1.1879382133483887,-0.14779800176620483],"scale":[0.009999999776482582,0.009999999776482582,0.009999999776482582],"name":"3Dmodelexport","extras":{"name":"3Dmodelexport"},"mesh":0}],"bufferViews":[{"buffer":0,"byteOffset":0,"byteLength":136416,"target":34962,"byteStride":12},{"buffer":0,"byteOffset":136416,"byteLength":136416,"target":34962,"byteStride":12},{"buffer":0,"byteOffset":272832,"byteLength":181888,"target":34962,"byteStride":16},{"buffer":0,"byteOffset":454720,"byteLength":90944,"target":34962,"byteStride":8},{"buffer":0,"byteOffset":545664,"byteLength":131336,"target":34963}],"buffers":[{"byteLength":677000,"uri":"data:application/octet-stream;base64,"}],"accessors":[{"bufferView":0,"componentType":5126,"count":11368,"max":[0.9999983906745911,0.9998687505722046,0.9910423159599304],"min":[-0.9999295473098755,-0.999998152256012,-0.9519327878952026],"type":"VEC3"},{"bufferView":1,"componentType":5126,"count":11368,"max":[312.63568115234375,159.37538146972656,332.0081787109375],"min":[-312.6368103027344,-159.58456420898438,-332.0044860839844],"type":"VEC3"},{"bufferView":2,"componentType":5126,"count":11368,"max":[0.9999982118606567,0.9999730587005615,0.9995547533035278,1],"min":[-0.9999924302101135,-0.9999011158943176,-0.9877667427062988,1],"type":"VEC4"},{"bufferView":3,"componentType":5126,"count":11368,"max":[0.9870681762695312,0.9302977323532104],"min":[0.012931564822793007,0.01300358772277832],"type":"VEC2"},{"bufferView":4,"componentType":5123,"count":65667,"max":[11367],"min":[0],"type":"SCALAR"}],"materials":[{"pbrMetallicRoughness":{"baseColorFactor":[0.800000011920929,0.800000011920929,0.800000011920929,1],"metallicFactor":0,"roughnessFactor":1,"baseColorTexture":{"index":0}},"normalTexture":{"index":1},"doubleSided":true,"name":"susannas_help_PBR"}],"textures":[{"sampler":0,"source":0,"name":"yourdesignhere_001.png.001"},{"sampler":1,"source":1,"name":"tshirt-sizi3ngtest_Base_Normal.<UDIM>.png"}],"samplers":[{"magFilter":9729,"minFilter":9987,"wrapS":10497,"wrapT":10497},{"magFilter":9729,"minFilter":9987,"wrapS":10497,"wrapT":10497}],"images":[{"mimeType":"image/png","uri":"data:image/png;base64,"},{"mimeType":"image/png","uri":"data:image/png;base64,"}],"meshes":[{"primitives":[{"mode":4,"attributes":{"NORMAL":0,"POSITION":1,"TANGENT":2,"TEXCOORD_0":3},"indices":4,"material":0}]}]}